<svg width="567" height="557" viewBox="0 0 567 557" fill="none" xmlns="http://www.w3.org/2000/svg">
<path fill-rule="evenodd" clip-rule="evenodd" d="M8.6896 434.385C-3.19729 422.063 -2.8448 402.438 9.47691 390.551L334.498 77H514.281L557.451 121.749C569.338 134.07 568.985 153.695 556.663 165.582L226.598 484H56.5538L8.6896 434.385ZM494.022 56L449.141 9.47692C437.254 -2.84479 417.629 -3.1973 405.307 8.68959L356.266 56H494.022ZM76.8128 505H204.83L160.833 547.444C148.511 559.331 128.886 558.978 116.999 546.657L76.8128 505ZM210.838 326.884C206.863 330.719 200.533 330.605 196.698 326.63L176.453 305.643C170.685 299.665 160.566 302.917 159.361 311.137L146.548 398.586C145.599 405.064 151.028 410.691 157.536 409.975L245.389 400.314C253.646 399.406 257.26 389.41 251.493 383.431L231.248 362.445C227.413 358.47 227.527 352.139 231.502 348.305L355.709 228.485C359.684 224.651 366.014 224.764 369.849 228.739L390.094 249.726C395.861 255.704 405.981 252.452 407.185 244.233L419.998 156.784C420.948 150.306 415.519 144.678 409.011 145.394L321.158 155.055C312.901 155.963 309.287 165.96 315.054 171.938L335.299 192.925C339.134 196.9 339.02 203.23 335.045 207.065L210.838 326.884Z" fill="url(#paint0_linear)"/>
<defs>
<linearGradient id="paint0_linear" x1="136.409" y1="459.716" x2="486.18" y2="76.8098" gradientUnits="userSpaceOnUse">
<stop stop-color="#72BBFF"/>
<stop offset="1" stop-color="#C172FF" stop-opacity="0.83"/>
</linearGradient>
</defs>
</svg>
